<svg xmlns="http://www.w3.org/2000/svg" width="1800" height="1250" viewBox="0 0 1800 1250">
  <defs>
    <style>
      .title { font: 700 30px 'Microsoft YaHei', 'Noto Sans SC', sans-serif; fill: #1f2937; }
      .subtitle { font: 500 16px 'Microsoft YaHei', 'Noto Sans SC', sans-serif; fill: #475569; }
      .entityTitle { font: 700 16px 'Microsoft YaHei', 'Noto Sans SC', sans-serif; fill: #0f172a; }
      .field { font: 13px 'Consolas', 'Courier New', monospace; fill: #334155; }
      .note { font: 13px 'Microsoft YaHei', 'Noto Sans SC', sans-serif; fill: #475569; }
      .entity { fill: #ffffff; stroke: #64748b; stroke-width: 1.8; rx: 14; ry: 14; }
      .headBlue { fill: #dbeafe; }
      .headGreen { fill: #dcfce7; }
      .headAmber { fill: #fef3c7; }
      .headRose { fill: #ffe4e6; }
      .headViolet { fill: #ede9fe; }
      .line { stroke: #475569; stroke-width: 2.2; fill: none; }
      .card { font: 700 14px 'Microsoft YaHei', 'Noto Sans SC', sans-serif; fill: #1e293b; }
    </style>
  </defs>

  <rect x="20" y="20" width="1760" height="1210" fill="#ffffff" stroke="#cbd5e1" stroke-width="2" rx="30" ry="30"/>
  <text x="900" y="65" text-anchor="middle" class="title">数据库 E-R 图</text>
  <text x="900" y="94" text-anchor="middle" class="subtitle">依据数据库迁移脚本整理的核心实体及其关系</text>
  <g>
    <line x1="900" y1="310" x2="560" y2="380" class="line"/>
    <line x1="900" y1="310" x2="900" y2="400" class="line"/>
    <line x1="1020" y1="240" x2="1100" y2="420" class="line"/>
    <line x1="1250" y1="290" x2="1250" y2="360" class="line"/>
    <line x1="1400" y1="435" x2="1440" y2="435" class="line"/>
    <line x1="700" y1="470" x2="760" y2="470" class="line"/>
    <line x1="620" y1="560" x2="570" y2="380" class="line"/>
    <line x1="190" y1="550" x2="175" y2="640" class="line"/>
    <line x1="240" y1="550" x2="430" y2="640" class="line"/>
    <line x1="220" y1="550" x2="295" y2="800" class="line"/>
    <line x1="760" y1="225" x2="220" y2="445" class="line"/>
    <line x1="900" y1="310" x2="220" y2="380" class="line"/>
    <line x1="900" y1="310" x2="650" y2="800" class="line"/>
    <line x1="1110" y1="870" x2="780" y2="870" class="line"/>
    <line x1="900" y1="310" x2="845" y2="1020" class="line"/>
    <line x1="900" y1="310" x2="1135" y2="1020" class="line"/>
    <line x1="1300" y1="1085" x2="970" y2="1085" class="line"/>
    <line x1="1550" y1="1085" x2="1260" y2="1085" class="line"/>
    <line x1="900" y1="310" x2="1290" y2="620" class="line"/>
    <line x1="1280" y1="750" x2="1280" y2="800" class="line"/>
    <line x1="1510" y1="750" x2="1320" y2="820" class="line"/>
    <line x1="900" y1="310" x2="1520" y2="620" class="line"/>
  </g>

  <g transform="translate(760,140)">
    <rect width="280" height="170" class="entity"/>
    <rect width="280" height="36" class="headBlue"/>
    <text x="18" y="24" class="entityTitle">sys_user</text>
    <text x="18" y="60" class="field">PK id</text>
    <text x="18" y="84" class="field">username, password</text>
    <text x="18" y="108" class="field">display_name, student_no</text>
    <text x="18" y="132" class="field">role, status</text>
    <text x="18" y="156" class="field">total_distance_km, points</text>
  </g>

  <g transform="translate(420,380)">
    <rect width="280" height="180" class="entity"/>
    <rect width="280" height="36" class="headGreen"/>
    <text x="18" y="24" class="entityTitle">run_session</text>
    <text x="18" y="60" class="field">PK id</text>
    <text x="18" y="84" class="field">FK user_id -&gt; sys_user.id</text>
    <text x="18" y="108" class="field">state, started_at, finished_at</text>
    <text x="18" y="132" class="field">distance_km, duration_seconds</text>
    <text x="18" y="156" class="field">route_point_count, cloud_session_id</text>
  </g>

  <g transform="translate(760,400)">
    <rect width="280" height="150" class="entity"/>
    <rect width="280" height="36" class="headAmber"/>
    <text x="18" y="24" class="entityTitle">daily_checkin</text>
    <text x="18" y="60" class="field">PK id</text>
    <text x="18" y="84" class="field">FK user_id -&gt; sys_user.id</text>
    <text x="18" y="108" class="field">FK source_run_id -&gt; run_session.id</text>
    <text x="18" y="132" class="field">checkin_date, streak_days</text>
  </g>

  <g transform="translate(1100,360)">
    <rect width="300" height="170" class="entity"/>
    <rect width="300" height="36" class="headViolet"/>
    <text x="18" y="24" class="entityTitle">user_run_plan</text>
    <text x="18" y="60" class="field">PK id</text>
    <text x="18" y="84" class="field">FK user_id -&gt; sys_user.id</text>
    <text x="18" y="108" class="field">FK template_id -&gt; run_plan_template.id</text>
    <text x="18" y="132" class="field">status, started_on</text>
    <text x="18" y="156" class="field">current_day_index</text>
  </g>

  <g transform="translate(1440,360)">
    <rect width="280" height="150" class="entity"/>
    <rect width="280" height="36" class="headViolet"/>
    <text x="18" y="24" class="entityTitle">user_run_plan_day</text>
    <text x="18" y="60" class="field">PK id</text>
    <text x="18" y="84" class="field">FK user_run_plan_id</text>
    <text x="18" y="108" class="field">FK source_run_id -&gt; run_session.id</text>
    <text x="18" y="132" class="field">day_index, completed</text>
  </g>

  <g transform="translate(1120,150)">
    <rect width="260" height="140" class="entity"/>
    <rect width="260" height="36" class="headViolet"/>
    <text x="18" y="24" class="entityTitle">run_plan_template</text>
    <text x="18" y="60" class="field">PK id</text>
    <text x="18" y="84" class="field">code, title, plan_type</text>
    <text x="18" y="108" class="field">duration_days, target_runs</text>
    <text x="18" y="132" class="field">target_distance_km</text>
  </g>

  <g transform="translate(80,380)">
    <rect width="280" height="170" class="entity"/>
    <rect width="280" height="36" class="headRose"/>
    <text x="18" y="24" class="entityTitle">feed_post</text>
    <text x="18" y="60" class="field">PK id</text>
    <text x="18" y="84" class="field">FK user_id -&gt; sys_user.id</text>
    <text x="18" y="108" class="field">content, image_urls</text>
    <text x="18" y="132" class="field">like_count, comment_count</text>
    <text x="18" y="156" class="field">review_status, risk_tags</text>
  </g>

  <g transform="translate(60,640)">
    <rect width="230" height="120" class="entity"/>
    <rect width="230" height="34" class="headRose"/>
    <text x="16" y="23" class="entityTitle">post_comment</text>
    <text x="16" y="56" class="field">PK id</text>
    <text x="16" y="78" class="field">FK post_id, FK user_id</text>
    <text x="16" y="100" class="field">content</text>
  </g>

  <g transform="translate(320,640)">
    <rect width="230" height="120" class="entity"/>
    <rect width="230" height="34" class="headRose"/>
    <text x="16" y="23" class="entityTitle">post_like</text>
    <text x="16" y="56" class="field">PK id</text>
    <text x="16" y="78" class="field">FK post_id, FK user_id</text>
    <text x="16" y="100" class="field">UNIQUE(post_id,user_id)</text>
  </g>

  <g transform="translate(180,800)">
    <rect width="230" height="120" class="entity"/>
    <rect width="230" height="34" class="headRose"/>
    <text x="16" y="23" class="entityTitle">post_report</text>
    <text x="16" y="56" class="field">PK id</text>
    <text x="16" y="78" class="field">FK post_id, reporter_id</text>
    <text x="16" y="100" class="field">reason</text>
  </g>

  <g transform="translate(520,800)">
    <rect width="260" height="140" class="entity"/>
    <rect width="260" height="34" class="headAmber"/>
    <text x="16" y="23" class="entityTitle">activity_registration</text>
    <text x="16" y="56" class="field">PK id</text>
    <text x="16" y="80" class="field">FK activity_id -&gt; activity.id</text>
    <text x="16" y="104" class="field">FK user_id -&gt; sys_user.id</text>
    <text x="16" y="128" class="field">status</text>
  </g>

  <g transform="translate(860,800)">
    <rect width="250" height="140" class="entity"/>
    <rect width="250" height="34" class="headAmber"/>
    <text x="16" y="23" class="entityTitle">activity</text>
    <text x="16" y="56" class="field">PK id</text>
    <text x="16" y="80" class="field">title, location, status</text>
    <text x="16" y="104" class="field">start_time, end_time</text>
    <text x="16" y="128" class="field">max_capacity</text>
  </g>

  <g transform="translate(1170,620)">
    <rect width="240" height="130" class="entity"/>
    <rect width="240" height="34" class="headBlue"/>
    <text x="16" y="23" class="entityTitle">club_member</text>
    <text x="16" y="56" class="field">PK id</text>
    <text x="16" y="80" class="field">FK club_id, FK user_id</text>
    <text x="16" y="104" class="field">role, active, joined_at</text>
  </g>

  <g transform="translate(1450,620)">
    <rect width="230" height="130" class="entity"/>
    <rect width="230" height="34" class="headBlue"/>
    <text x="16" y="23" class="entityTitle">club_message</text>
    <text x="16" y="56" class="field">PK id</text>
    <text x="16" y="80" class="field">FK club_id, FK user_id</text>
    <text x="16" y="104" class="field">content</text>
  </g>

  <g transform="translate(1170,800)">
    <rect width="220" height="130" class="entity"/>
    <rect width="220" height="34" class="headBlue"/>
    <text x="16" y="23" class="entityTitle">club</text>
    <text x="16" y="56" class="field">PK id</text>
    <text x="16" y="80" class="field">name, slogan</text>
    <text x="16" y="104" class="field">member_count, active</text>
  </g>

  <g transform="translate(720,1020)">
    <rect width="250" height="130" class="entity"/>
    <rect width="250" height="34" class="headGreen"/>
    <text x="16" y="23" class="entityTitle">user_badge</text>
    <text x="16" y="56" class="field">PK id</text>
    <text x="16" y="80" class="field">FK user_id, FK badge_id</text>
    <text x="16" y="104" class="field">granted_at</text>
  </g>

  <g transform="translate(1010,1020)">
    <rect width="250" height="130" class="entity"/>
    <rect width="250" height="34" class="headGreen"/>
    <text x="16" y="23" class="entityTitle">user_task_progress</text>
    <text x="16" y="56" class="field">PK id</text>
    <text x="16" y="80" class="field">FK user_id, FK task_id</text>
    <text x="16" y="104" class="field">current_value, completed</text>
  </g>

  <g transform="translate(1300,1020)">
    <rect width="220" height="130" class="entity"/>
    <rect width="220" height="34" class="headGreen"/>
    <text x="16" y="23" class="entityTitle">badge</text>
    <text x="16" y="56" class="field">PK id</text>
    <text x="16" y="80" class="field">code, name</text>
    <text x="16" y="104" class="field">rule_type, threshold</text>
  </g>

  <g transform="translate(1550,1020)">
    <rect width="210" height="130" class="entity"/>
    <rect width="210" height="34" class="headGreen"/>
    <text x="16" y="23" class="entityTitle">challenge_task</text>
    <text x="16" y="56" class="field">PK id</text>
    <text x="16" y="80" class="field">task_type, goal_type</text>
    <text x="16" y="104" class="field">goal_value, reward</text>
  </g>

  <text x="680" y="330" class="card">1 : N</text>
  <text x="916" y="360" class="card">1 : N</text>
  <text x="1060" y="325" class="card">1 : N</text>
  <text x="1265" y="330" class="card">1 : N</text>
  <text x="1408" y="425" class="card">1 : N</text>
  <text x="715" y="460" class="card">1 : N</text>
  <text x="592" y="550" class="card">1</text>
  <text x="585" y="405" class="card">N</text>
  <text x="150" y="606" class="card">1 : N</text>
  <text x="300" y="606" class="card">1 : N</text>
  <text x="230" y="700" class="card">1 : N</text>
  <text x="430" y="320" class="card">1 : N</text>
  <text x="500" y="360" class="card">1 : N</text>
  <text x="820" y="620" class="card">1 : N</text>
  <text x="910" y="860" class="card">1 : N</text>
  <text x="860" y="680" class="card">1 : N</text>
  <text x="1060" y="700" class="card">1 : N</text>
  <text x="1110" y="1074" class="card">1 : N</text>
  <text x="1400" y="1074" class="card">1 : N</text>
  <text x="1120" y="500" class="card">1 : N</text>
  <text x="1295" y="780" class="card">1 : N</text>
  <text x="1450" y="800" class="card">N : 1</text>
  <text x="1240" y="460" class="card">1 : N</text>

  <text x="90" y="1185" class="note">说明：为保证论文版面清晰，图中展示的是系统核心业务表及关键外键关系，统计表、日志表、横幅表和教程表可在正文中补充说明。</text>
</svg>
