<svg xmlns="http://www.w3.org/2000/svg" width="1400" height="980" viewBox="0 0 1400 980">
  <defs>
    <style>
      .title { font: 700 30px 'Microsoft YaHei', 'Noto Sans SC', sans-serif; fill: #1f2937; }
      .subtitle { font: 500 16px 'Microsoft YaHei', 'Noto Sans SC', sans-serif; fill: #475569; }
      .root { fill: #dbeafe; stroke: #2563eb; stroke-width: 2.5; rx: 22; ry: 22; }
      .branch { fill: #f8fafc; stroke: #94a3b8; stroke-width: 2; rx: 18; ry: 18; }
      .leaf { fill: #ffffff; stroke: #cbd5e1; stroke-width: 1.8; rx: 14; ry: 14; }
      .label { font: 700 18px 'Microsoft YaHei', 'Noto Sans SC', sans-serif; fill: #0f172a; }
      .text { font: 14px 'Microsoft YaHei', 'Noto Sans SC', sans-serif; fill: #334155; }
      .line { stroke: #64748b; stroke-width: 2.4; fill: none; }
    </style>
  </defs>

  <rect x="20" y="20" width="1360" height="940" fill="#ffffff" stroke="#cbd5e1" stroke-width="2" rx="30" ry="30"/>
  <text x="700" y="68" text-anchor="middle" class="title">学生端功能结构图</text>
  <text x="700" y="98" text-anchor="middle" class="subtitle">依据小程序页面与业务模块整理的功能树</text>
  <g>
    <line x1="700" y1="210" x2="700" y2="250" class="line"/>
    <line x1="200" y1="250" x2="1040" y2="250" class="line"/>
    <line x1="200" y1="250" x2="200" y2="310" class="line"/>
    <line x1="480" y1="250" x2="480" y2="310" class="line"/>
    <line x1="760" y1="250" x2="760" y2="310" class="line"/>
    <line x1="1040" y1="250" x2="1040" y2="310" class="line"/>
    <path d="M700 210 V235 H1340 V760 H1310" class="line"/>

    <path d="M200 380 V470" class="line"/>
    <path d="M200 380 V435 H70 V545 H200" class="line"/>

    <path d="M480 380 V445" class="line"/>
    <path d="M480 380 V510 H620 V520 H480" class="line"/>
    <path d="M480 380 V585 H660 V595 H480" class="line"/>

    <path d="M760 380 V430" class="line"/>
    <path d="M760 380 V495 H900 V505 H760" class="line"/>
    <path d="M760 380 V570 H940 V580 H760" class="line"/>
    <path d="M760 380 V645 H980 V655 H760" class="line"/>

    <path d="M1040 380 V430" class="line"/>
    <path d="M1040 380 V495 H900 V505 H1040" class="line"/>
    <path d="M1040 380 V570 H860 V580 H1040" class="line"/>
    <path d="M1040 380 V645 H820 V655 H1040" class="line"/>

    <path d="M1310 760 H1340 V430" class="line"/>
    <line x1="1340" y1="457" x2="1310" y2="457" class="line"/>
    <line x1="1340" y1="532" x2="1310" y2="532" class="line"/>
    <line x1="1340" y1="607" x2="1310" y2="607" class="line"/>
    <line x1="1340" y1="682" x2="1310" y2="682" class="line"/>
    <line x1="1200" y1="830" x2="1200" y2="835" class="line"/>
  </g>

  <rect x="530" y="130" width="340" height="80" class="root"/>
  <text x="700" y="178" text-anchor="middle" class="label">微信小程序学生端</text>

  <rect x="90" y="310" width="220" height="70" class="branch"/>
  <text x="200" y="352" text-anchor="middle" class="label">登录认证</text>
  <rect x="370" y="310" width="220" height="70" class="branch"/>
  <text x="480" y="352" text-anchor="middle" class="label">首页概览</text>
  <rect x="650" y="310" width="220" height="70" class="branch"/>
  <text x="760" y="352" text-anchor="middle" class="label">跑步记录</text>
  <rect x="930" y="310" width="220" height="70" class="branch"/>
  <text x="1040" y="352" text-anchor="middle" class="label">成长中心</text>
  <rect x="1090" y="760" width="220" height="70" class="branch"/>
  <text x="1200" y="802" text-anchor="middle" class="label">个人中心</text>

  <rect x="90" y="470" width="220" height="54" class="leaf"/>
  <text x="200" y="503" text-anchor="middle" class="text">账号密码登录</text>
  <rect x="90" y="545" width="220" height="54" class="leaf"/>
  <text x="200" y="578" text-anchor="middle" class="text">令牌缓存与自动鉴权</text>

  <rect x="370" y="445" width="220" height="54" class="leaf"/>
  <text x="480" y="478" text-anchor="middle" class="text">轮播横幅与热点内容</text>
  <rect x="370" y="520" width="220" height="54" class="leaf"/>
  <text x="480" y="553" text-anchor="middle" class="text">活动推荐与教程推荐</text>
  <rect x="370" y="595" width="220" height="54" class="leaf"/>
  <text x="480" y="628" text-anchor="middle" class="text">个人运动概览与轨迹预览</text>

  <rect x="650" y="430" width="220" height="54" class="leaf"/>
  <text x="760" y="463" text-anchor="middle" class="text">开始 / 暂停 / 继续 / 结束</text>
  <rect x="650" y="505" width="220" height="54" class="leaf"/>
  <text x="760" y="538" text-anchor="middle" class="text">定位采集与轨迹绘制</text>
  <rect x="650" y="580" width="220" height="54" class="leaf"/>
  <text x="760" y="613" text-anchor="middle" class="text">本地恢复与未完成记录找回</text>
  <rect x="650" y="655" width="220" height="54" class="leaf"/>
  <text x="760" y="688" text-anchor="middle" class="text">结果页与历史记录查询</text>

  <rect x="930" y="430" width="220" height="54" class="leaf"/>
  <text x="1040" y="463" text-anchor="middle" class="text">每日打卡状态</text>
  <rect x="930" y="505" width="220" height="54" class="leaf"/>
  <text x="1040" y="538" text-anchor="middle" class="text">跑步计划选择与推进</text>
  <rect x="930" y="580" width="220" height="54" class="leaf"/>
  <text x="1040" y="613" text-anchor="middle" class="text">积分等级任务</text>
  <rect x="930" y="655" width="220" height="54" class="leaf"/>
  <text x="1040" y="688" text-anchor="middle" class="text">徽章与排行榜</text>

  <rect x="1090" y="430" width="220" height="54" class="leaf"/>
  <text x="1200" y="463" text-anchor="middle" class="text">动态发布与互动</text>
  <rect x="1090" y="505" width="220" height="54" class="leaf"/>
  <text x="1200" y="538" text-anchor="middle" class="text">跑团加入与群消息</text>
  <rect x="1090" y="580" width="220" height="54" class="leaf"/>
  <text x="1200" y="613" text-anchor="middle" class="text">活动报名与教程浏览</text>
  <rect x="1090" y="655" width="220" height="54" class="leaf"/>
  <text x="1200" y="688" text-anchor="middle" class="text">个人资料与最近跑步</text>
  <rect x="1090" y="835" width="220" height="54" class="leaf"/>
  <text x="1200" y="868" text-anchor="middle" class="text">我的徽章与账户信息</text>

</svg>
