<svg xmlns="http://www.w3.org/2000/svg" width="1400" height="980" viewBox="0 0 1400 980">
  <defs>
    <style>
      .title { font: 700 30px 'Microsoft YaHei', 'Noto Sans SC', sans-serif; fill: #1f2937; }
      .subtitle { font: 500 16px 'Microsoft YaHei', 'Noto Sans SC', sans-serif; fill: #475569; }
      .root { fill: #dcfce7; stroke: #16a34a; stroke-width: 2.5; rx: 22; ry: 22; }
      .branch { fill: #f8fafc; stroke: #94a3b8; stroke-width: 2; rx: 18; ry: 18; }
      .leaf { fill: #ffffff; stroke: #cbd5e1; stroke-width: 1.8; rx: 14; ry: 14; }
      .label { font: 700 18px 'Microsoft YaHei', 'Noto Sans SC', sans-serif; fill: #0f172a; }
      .text { font: 14px 'Microsoft YaHei', 'Noto Sans SC', sans-serif; fill: #334155; }
      .line { stroke: #64748b; stroke-width: 2.4; fill: none; }
    </style>
  </defs>

  <rect x="20" y="20" width="1360" height="940" fill="#ffffff" stroke="#cbd5e1" stroke-width="2" rx="30" ry="30"/>
  <text x="700" y="68" text-anchor="middle" class="title">后台管理功能结构图</text>
  <text x="700" y="98" text-anchor="middle" class="subtitle">依据 admin-web 页面与后台接口整理的运营功能树</text>
  <g>
    <line x1="700" y1="200" x2="700" y2="240" class="line"/>
    <line x1="200" y1="240" x2="1040" y2="240" class="line"/>
    <line x1="200" y1="240" x2="200" y2="290" class="line"/>
    <line x1="480" y1="240" x2="480" y2="290" class="line"/>
    <line x1="760" y1="240" x2="760" y2="290" class="line"/>
    <line x1="1040" y1="240" x2="1040" y2="290" class="line"/>
    <path d="M700 200 V230 H1340 V730 H1310" class="line"/>

    <path d="M200 360 V430" class="line"/>
    <path d="M200 360 V495 H340 V505 H200" class="line"/>
    <path d="M200 360 V570 H380 V580 H200" class="line"/>

    <path d="M480 360 V430" class="line"/>
    <path d="M480 360 V495 H620 V505 H480" class="line"/>
    <path d="M480 360 V570 H660 V580 H480" class="line"/>

    <path d="M760 360 V430" class="line"/>
    <path d="M760 360 V495 H900 V505 H760" class="line"/>
    <path d="M760 360 V570 H940 V580 H760" class="line"/>

    <path d="M1040 360 V430" class="line"/>
    <path d="M1040 360 V495 H900 V505 H1040" class="line"/>
    <path d="M1040 360 V570 H860 V580 H1040" class="line"/>

    <path d="M1310 730 H1340 V430" class="line"/>
    <line x1="1340" y1="457" x2="1310" y2="457" class="line"/>
    <line x1="1340" y1="532" x2="1310" y2="532" class="line"/>
    <line x1="1340" y1="607" x2="1310" y2="607" class="line"/>
    <line x1="1340" y1="682" x2="1310" y2="682" class="line"/>
    <line x1="1200" y1="800" x2="1200" y2="805" class="line"/>
  </g>

  <rect x="530" y="120" width="340" height="80" class="root"/>
  <text x="700" y="168" text-anchor="middle" class="label">后台管理系统</text>

  <rect x="90" y="290" width="220" height="70" class="branch"/>
  <text x="200" y="332" text-anchor="middle" class="label">运营概览</text>
  <rect x="370" y="290" width="220" height="70" class="branch"/>
  <text x="480" y="332" text-anchor="middle" class="label">学生管理</text>
  <rect x="650" y="290" width="220" height="70" class="branch"/>
  <text x="760" y="332" text-anchor="middle" class="label">内容审核</text>
  <rect x="930" y="290" width="220" height="70" class="branch"/>
  <text x="1040" y="332" text-anchor="middle" class="label">奖励配置</text>
  <rect x="1090" y="730" width="220" height="70" class="branch"/>
  <text x="1200" y="772" text-anchor="middle" class="label">活动与统计</text>

  <rect x="90" y="430" width="220" height="54" class="leaf"/>
  <text x="200" y="463" text-anchor="middle" class="text">学生总数与累计里程</text>
  <rect x="90" y="505" width="220" height="54" class="leaf"/>
  <text x="200" y="538" text-anchor="middle" class="text">待审核动态数量</text>
  <rect x="90" y="580" width="220" height="54" class="leaf"/>
  <text x="200" y="613" text-anchor="middle" class="text">最近操作日志摘要</text>

  <rect x="370" y="430" width="220" height="54" class="leaf"/>
  <text x="480" y="463" text-anchor="middle" class="text">学生列表与详情</text>
  <rect x="370" y="505" width="220" height="54" class="leaf"/>
  <text x="480" y="538" text-anchor="middle" class="text">启用 / 禁用状态维护</text>
  <rect x="370" y="580" width="220" height="54" class="leaf"/>
  <text x="480" y="613" text-anchor="middle" class="text">CSV / XLSX 批量导入</text>

  <rect x="650" y="430" width="220" height="54" class="leaf"/>
  <text x="760" y="463" text-anchor="middle" class="text">待审核动态列表</text>
  <rect x="650" y="505" width="220" height="54" class="leaf"/>
  <text x="760" y="538" text-anchor="middle" class="text">通过 / 拒绝 / 下架</text>
  <rect x="650" y="580" width="220" height="54" class="leaf"/>
  <text x="760" y="613" text-anchor="middle" class="text">置顶推荐与审计记录</text>

  <rect x="930" y="430" width="220" height="54" class="leaf"/>
  <text x="1040" y="463" text-anchor="middle" class="text">徽章规则新增</text>
  <rect x="930" y="505" width="220" height="54" class="leaf"/>
  <text x="1040" y="538" text-anchor="middle" class="text">规则类型与阈值配置</text>
  <rect x="930" y="580" width="220" height="54" class="leaf"/>
  <text x="1040" y="613" text-anchor="middle" class="text">图标与描述维护</text>

  <rect x="1090" y="430" width="220" height="54" class="leaf"/>
  <text x="1200" y="463" text-anchor="middle" class="text">活动发布与报名上限</text>
  <rect x="1090" y="505" width="220" height="54" class="leaf"/>
  <text x="1200" y="538" text-anchor="middle" class="text">教程发布与内容维护</text>
  <rect x="1090" y="580" width="220" height="54" class="leaf"/>
  <text x="1200" y="613" text-anchor="middle" class="text">趋势图与分布图统计</text>
  <rect x="1090" y="655" width="220" height="54" class="leaf"/>
  <text x="1200" y="688" text-anchor="middle" class="text">后台日志审计</text>
  <rect x="1090" y="805" width="220" height="54" class="leaf"/>
  <text x="1200" y="838" text-anchor="middle" class="text">14 天趋势与活跃分布</text>

</svg>
